<mxfile host="app.diagrams.net" modified="2024-06-01T15:16:59.068Z" agent="Mozilla/5.0 (X11; Linux x86_64; rv:126.0) Gecko/20100101 Firefox/126.0" etag="M18cF7gBZl4PincJSwYO" version="24.4.13" type="github">
  <diagram name="Page-1" id="ZKqkwvecnVCzXAj3dSVy">
    <mxGraphModel dx="856" dy="622" grid="1" gridSize="10" guides="1" tooltips="1" connect="1" arrows="1" fold="1" page="1" pageScale="1" pageWidth="850" pageHeight="1100" math="0" shadow="0">
      <root>
        <mxCell id="0" />
        <mxCell id="1" parent="0" />
        <mxCell id="qRFt9-S01jpdzBs1n6ap-1" value="" style="rounded=0;whiteSpace=wrap;html=1;" vertex="1" parent="1">
          <mxGeometry x="120" y="280" width="120" height="60" as="geometry" />
        </mxCell>
      </root>
    </mxGraphModel>
  </diagram>
</mxfile>
